<svg width="21" height="14" viewBox="0 0 21 14" fill="none" xmlns="http://www.w3.org/2000/svg">
<path d="M6.31755 0.67952C6.89452 0.67952 7.42815 0.724666 7.91573 0.858299C8.40421 0.947688 8.8042 1.12647 9.15905 1.34949C9.51481 1.57281 9.78117 1.88553 9.95814 2.28763C10.136 2.68943 10.2254 3.18153 10.2254 3.71696C10.2254 4.34269 10.0918 4.87812 9.78117 5.27992C9.51481 5.68263 9.07057 6.03929 8.53784 6.30745C9.29269 6.53138 9.86966 6.93318 10.2254 7.46862C10.5812 8.00405 10.8024 8.67492 10.8024 9.43428C10.8024 10.06 10.6687 10.5954 10.4466 11.0424C10.2254 11.4893 9.86966 11.8911 9.46966 12.1593C9.03498 12.4464 8.55473 12.6577 8.04936 12.7841C7.51663 12.9187 6.98391 13.0081 6.45118 13.0081H0.5V0.67952H6.31755ZM5.9618 5.68173C6.45028 5.68173 6.85027 5.54809 7.16088 5.32507C7.47149 5.10205 7.60512 4.69934 7.60512 4.20815C7.60512 3.93998 7.55997 3.67181 7.47149 3.49394C7.383 3.31606 7.24937 3.18062 7.07239 3.04699C6.89144 2.94536 6.69683 2.87025 6.49452 2.82397C6.2724 2.77882 6.05119 2.77882 5.78392 2.77882H3.20878V5.68263L5.9618 5.68173ZM6.09543 10.953C6.36179 10.953 6.62815 10.9079 6.85027 10.8636C7.07239 10.8185 7.29451 10.73 7.47149 10.5954C7.65171 10.4639 7.80293 10.2967 7.91573 10.1043C8.00421 9.88123 8.0936 9.61306 8.0936 9.30065C8.0936 8.67493 7.91573 8.22798 7.56088 7.91556C7.20512 7.6474 6.71664 7.51376 6.13967 7.51376H3.20878V10.9539L6.09543 10.953ZM14.666 10.9079C15.0211 11.2654 15.5539 11.4442 16.2642 11.4442C16.7527 11.4442 17.1969 11.3106 17.5517 11.0875C17.9075 10.8191 18.1296 10.5509 18.2181 10.283H20.3942C20.0384 11.3548 19.5057 12.1142 18.796 12.6054C18.0845 13.0523 17.2411 13.3205 16.2199 13.3205C15.5666 13.3214 14.9189 13.2002 14.3102 12.9629C13.7623 12.7586 13.2738 12.4209 12.889 11.9805C12.4758 11.57 12.1708 11.0634 12.0015 10.5061C11.7793 9.92548 11.69 9.30065 11.69 8.58554C11.69 7.91557 11.7793 7.29074 12.0015 6.70926C12.2145 6.14908 12.5309 5.6339 12.9342 5.19054C13.3333 4.78873 13.8218 4.43208 14.3545 4.20815C14.9475 3.97006 15.5809 3.84865 16.2199 3.85059C16.9748 3.85059 17.6411 3.98513 18.2181 4.29754C18.796 4.60995 19.2393 4.96751 19.5942 5.50385C19.9499 5.99504 20.2172 6.57562 20.3942 7.20135C20.4826 7.82617 20.5269 8.4519 20.4826 9.16612H14.0439C14.0439 9.88123 14.3102 10.5512 14.666 10.9088M17.4633 6.21897C17.1527 5.90656 16.6642 5.72778 16.0863 5.72778C15.7475 5.7227 15.4124 5.79919 15.1093 5.9508C14.843 6.08533 14.666 6.26411 14.4881 6.44289C14.3236 6.61487 14.2153 6.83277 14.1775 7.06772C14.1324 7.29164 14.0881 7.46952 14.0881 7.6483H18.0845C17.996 6.97833 17.7739 6.53228 17.4633 6.21897ZM13.5554 1.52827H18.5287V2.73458H13.5563L13.5554 1.52827Z" fill="#A1A1A3"/>
</svg>
