<svg width="21" height="20" viewBox="0 0 21 20" fill="none" xmlns="http://www.w3.org/2000/svg">
<path d="M10.5 0.242256C9.18678 0.242256 7.88642 0.500914 6.67317 1.00346C5.45991 1.50601 4.35752 2.2426 3.42893 3.17119C1.55357 5.04655 0.5 7.59009 0.5 10.2423C0.5 14.6623 3.37 18.4123 7.34 19.7423C7.84 19.8223 8 19.5123 8 19.2423V17.5523C5.23 18.1523 4.64 16.2123 4.64 16.2123C4.18 15.0523 3.53 14.7423 3.53 14.7423C2.62 14.1223 3.6 14.1423 3.6 14.1423C4.6 14.2123 5.13 15.1723 5.13 15.1723C6 16.6923 7.47 16.2423 8.04 16.0023C8.13 15.3523 8.39 14.9123 8.67 14.6623C6.45 14.4123 4.12 13.5523 4.12 9.74226C4.12 8.63226 4.5 7.74226 5.15 7.03226C5.05 6.78226 4.7 5.74226 5.25 4.39226C5.25 4.39226 6.09 4.12226 8 5.41226C8.79 5.19226 9.65 5.08226 10.5 5.08226C11.35 5.08226 12.21 5.19226 13 5.41226C14.91 4.12226 15.75 4.39226 15.75 4.39226C16.3 5.74226 15.95 6.78226 15.85 7.03226C16.5 7.74226 16.88 8.63226 16.88 9.74226C16.88 13.5623 14.54 14.4023 12.31 14.6523C12.67 14.9623 13 15.5723 13 16.5023V19.2423C13 19.5123 13.16 19.8323 13.67 19.7423C17.64 18.4023 20.5 14.6623 20.5 10.2423C20.5 8.92904 20.2413 7.62868 19.7388 6.41542C19.2362 5.20217 18.4997 4.09977 17.5711 3.17119C16.6425 2.2426 15.5401 1.50601 14.3268 1.00346C13.1136 0.500914 11.8132 0.242256 10.5 0.242256Z" fill="#A1A1A3"/>
</svg>
